<svg width="28" height="28" viewBox="0 0 28 28" fill="none" xmlns="http://www.w3.org/2000/svg">
<path d="M16.1875 20.999H11.8125C11.0852 20.999 10.5 20.4137 10.5 19.6863V10.4974H5.70391C4.73047 10.4974 4.24375 9.32148 4.93281 8.63232L13.2508 0.307662C13.6609 -0.102554 14.3336 -0.102554 14.7438 0.307662L23.0672 8.63232C23.7562 9.32148 23.2695 10.4974 22.2961 10.4974H17.5V19.6863C17.5 20.4137 16.9148 20.999 16.1875 20.999ZM28 20.5614V26.6873C28 27.4148 27.4148 28 26.6875 28H1.3125C0.585156 28 0 27.4148 0 26.6873V20.5614C0 19.834 0.585156 19.2487 1.3125 19.2487H8.75V19.6863C8.75 21.3764 10.1227 22.7492 11.8125 22.7492H16.1875C17.8773 22.7492 19.25 21.3764 19.25 19.6863V19.2487H26.6875C27.4148 19.2487 28 19.834 28 20.5614ZM21.2188 25.3746C21.2188 24.773 20.7266 24.2807 20.125 24.2807C19.5234 24.2807 19.0312 24.773 19.0312 25.3746C19.0312 25.9763 19.5234 26.4685 20.125 26.4685C20.7266 26.4685 21.2188 25.9763 21.2188 25.3746ZM24.7188 25.3746C24.7188 24.773 24.2266 24.2807 23.625 24.2807C23.0234 24.2807 22.5312 24.773 22.5312 25.3746C22.5312 25.9763 23.0234 26.4685 23.625 26.4685C24.2266 26.4685 24.7188 25.9763 24.7188 25.3746Z" fill="black"/>
</svg>
